<svg width="24" height="24" viewBox="0 0 24 24" fill="none" xmlns="http://www.w3.org/2000/svg">
<path d="M22.8987 0.75H21.8439V1.086C20.3754 1.4145 20.1642 2.77762 20.0814 3.2985C20.042 3.54487 19.9621 4.02675 19.8631 4.617H1.4956C0.768853 4.617 0.687478 5.29612 0.782353 5.67188L2.9371 15.1845C3.0316 15.5603 3.42948 15.867 3.81948 15.867H19.9235C20.3112 15.867 20.6274 16.1824 20.6274 16.5701C20.6274 16.9579 20.3112 17.2733 19.9235 17.2733H2.34573C2.15925 17.2733 1.98041 17.3473 1.84854 17.4792C1.71668 17.6111 1.6426 17.7899 1.6426 17.9764C1.6426 18.1629 1.71668 18.3417 1.84854 18.4736C1.98041 18.6054 2.15925 18.6795 2.34573 18.6795H3.25698C2.81699 18.9224 2.4502 19.2789 2.19482 19.7117C1.93944 20.1446 1.80482 20.638 1.80498 21.1406H2.5081C2.5081 22.305 3.4531 23.25 4.61748 23.25C5.78185 23.25 6.72685 22.305 6.72685 21.1406H7.42998C7.43006 20.638 7.29537 20.1446 7.03992 19.7117C6.78448 19.2788 6.41763 18.9224 5.9776 18.6795H15.9129C15.4728 18.9224 15.106 19.2788 14.8505 19.7117C14.5951 20.1446 14.4604 20.638 14.4605 21.1406H15.1636C15.174 21.6933 15.4009 22.2198 15.7954 22.6069C16.1899 22.9941 16.7206 23.211 17.2734 23.211C17.8261 23.211 18.3568 22.9941 18.7513 22.6069C19.1458 22.2198 19.3727 21.6933 19.3831 21.1406H20.0862C20.0863 20.6381 19.9516 20.1447 19.6962 19.7118C19.4409 19.279 19.0741 18.9225 18.6342 18.6795H19.9242C20.4836 18.6792 21.0199 18.4569 21.4155 18.0613C21.811 17.6658 22.0333 17.1295 22.0336 16.5701C22.0336 16.2931 21.9789 16.0187 21.8729 15.7628C21.7668 15.5068 21.6113 15.2743 21.4154 15.0784C21.2195 14.8825 20.9869 14.7272 20.7309 14.6212C20.4749 14.5152 20.2005 14.4607 19.9235 14.4608H19.6621L20.5614 8.8695C20.8119 7.39275 21.3519 4.20262 21.4786 3.40912C21.5424 3.00825 21.6042 2.72662 21.8439 2.56875V2.859H22.8987C22.9918 2.8587 23.0809 2.82164 23.1467 2.75589C23.2125 2.69014 23.2497 2.60103 23.2501 2.508V1.10175C23.2499 1.00859 23.2128 0.919288 23.147 0.853376C23.0812 0.787464 22.9919 0.750297 22.8987 0.75ZM4.61748 22.1955C4.3378 22.1952 4.06966 22.084 3.8719 21.8862C3.67413 21.6884 3.5629 21.4203 3.5626 21.1406H5.67198C5.67168 21.4202 5.5605 21.6883 5.36282 21.8861C5.16513 22.0838 4.89709 22.1951 4.61748 22.1955ZM17.2737 22.1955C16.994 22.1953 16.7257 22.0841 16.5279 21.8863C16.3301 21.6886 16.2188 21.4204 16.2185 21.1406H18.3286C18.3281 21.4202 18.2168 21.6883 18.0191 21.886C17.8214 22.0837 17.5533 22.195 17.2737 22.1955ZM16.4086 6.37275C16.421 6.27744 16.4672 6.18974 16.5387 6.1256C16.6103 6.06146 16.7025 6.02514 16.7986 6.02325H19.025C19.2185 6.02325 19.3531 6.17925 19.3227 6.37088L19.1022 7.785C19.073 7.97625 18.8896 8.13263 18.6957 8.13263H16.5721C16.5274 8.13381 16.4829 8.12529 16.4418 8.10766C16.4007 8.09003 16.3639 8.06371 16.3339 8.0305C16.304 7.99728 16.2815 7.95797 16.2682 7.91527C16.2549 7.87257 16.251 7.82749 16.2567 7.78312L16.4086 6.37275ZM16.0302 9.88837C16.0428 9.79316 16.0891 9.70559 16.1606 9.6415C16.2321 9.5774 16.3242 9.541 16.4202 9.53888H18.4764C18.6702 9.53888 18.8045 9.69487 18.7752 9.8865L18.6091 10.9493C18.5795 11.1405 18.3965 11.2969 18.2026 11.2969H16.2312C16.1865 11.2979 16.1422 11.2893 16.1011 11.2717C16.0601 11.254 16.0233 11.2277 15.9934 11.1945C15.9634 11.1613 15.941 11.122 15.9276 11.0794C15.9142 11.0367 15.9102 10.9917 15.9159 10.9474L16.0302 9.88837ZM2.57485 7.79138L2.2186 6.3645C2.1721 6.17625 2.29285 6.02325 2.48673 6.02325H5.13385C5.3281 6.02325 5.50323 6.18037 5.52385 6.37275L5.67535 7.7835C5.68097 7.82781 5.67697 7.87281 5.66362 7.91542C5.65026 7.95804 5.62787 7.99728 5.59797 8.03046C5.56807 8.06363 5.53136 8.08997 5.49035 8.10766C5.44935 8.12536 5.405 8.134 5.36035 8.133H3.01248C2.81898 8.133 2.62173 7.97888 2.57485 7.79138ZM3.80148 11.2969C3.60798 11.2969 3.41073 11.1431 3.36423 10.9556L3.09573 9.8805C3.04885 9.69225 3.16885 9.53925 3.36273 9.53925H5.5111C5.70498 9.53925 5.88048 9.69637 5.9011 9.88875L6.0151 10.9478C6.02079 10.9921 6.01683 11.0371 6.0035 11.0797C5.99017 11.1224 5.96778 11.1616 5.93787 11.1948C5.90795 11.228 5.87122 11.2544 5.83018 11.272C5.78914 11.2897 5.74477 11.2983 5.7001 11.2972H3.80148V11.2969ZM6.03985 14.4611H4.59048C4.39585 14.4611 4.19973 14.3074 4.15285 14.1199L3.88435 13.0448C3.83785 12.8565 3.95785 12.7035 4.1521 12.7035H5.85085C6.04473 12.7035 6.22023 12.8606 6.2416 13.053L6.35485 14.112C6.36054 14.1563 6.35659 14.2013 6.34325 14.2439C6.32992 14.2866 6.30753 14.3258 6.27761 14.359C6.24768 14.3921 6.21095 14.4184 6.16991 14.4361C6.12887 14.4537 6.0845 14.4622 6.03985 14.4611ZM10.3494 14.1094C10.349 14.2027 10.3117 14.292 10.2456 14.3579C10.1796 14.4238 10.0902 14.4609 9.99685 14.4611H8.16273C8.06671 14.4591 7.97458 14.4228 7.90308 14.3587C7.83159 14.2945 7.78547 14.2069 7.7731 14.1116L7.6591 13.0526C7.65329 13.0083 7.65715 12.9633 7.67041 12.9206C7.68367 12.8779 7.70602 12.8386 7.73592 12.8054C7.76582 12.7722 7.80256 12.7459 7.84361 12.7282C7.88466 12.7105 7.92905 12.702 7.97373 12.7031H9.99685C10.0902 12.7031 10.1798 12.7402 10.2458 12.8061C10.3119 12.872 10.3492 12.9615 10.3494 13.0549V14.1094ZM10.3494 10.9455C10.349 11.0388 10.3117 11.1281 10.2456 11.1941C10.1796 11.26 10.0902 11.2971 9.99685 11.2972H7.8226C7.6291 11.2972 7.45435 11.1401 7.4326 10.9478L7.31935 9.88875C7.31361 9.84445 7.31751 9.79944 7.3308 9.75679C7.34408 9.71414 7.36643 9.67487 7.39632 9.64167C7.42621 9.60847 7.46292 9.58213 7.50394 9.56445C7.54496 9.54677 7.58932 9.53818 7.63398 9.53925H9.99685C10.0902 9.53925 10.1798 9.57629 10.2458 9.64223C10.3119 9.70817 10.3492 9.79764 10.3494 9.891V10.9455ZM10.3494 7.78125C10.349 7.87455 10.3117 7.9639 10.2456 8.0298C10.1796 8.0957 10.0902 8.1328 9.99685 8.133H7.4836C7.38751 8.13111 7.2953 8.09479 7.22373 8.03065C7.15215 7.96651 7.10598 7.87881 7.0936 7.7835L6.9421 6.37275C6.93642 6.32843 6.94038 6.28341 6.95371 6.24076C6.96704 6.19811 6.98943 6.15885 7.01934 6.12566C7.04925 6.09247 7.08599 6.06613 7.12703 6.04846C7.16806 6.03078 7.21243 6.02218 7.2571 6.02325H9.99723C10.0906 6.02325 10.1801 6.06029 10.2462 6.12623C10.3123 6.19217 10.3495 6.28164 10.3497 6.375V7.78125H10.3494ZM14.159 14.1116C14.1465 14.2069 14.1003 14.2946 14.0288 14.3587C13.9572 14.4228 13.865 14.4592 13.769 14.4611H12.1115C12.0182 14.4609 11.9288 14.4238 11.8628 14.3579C11.7969 14.292 11.7597 14.2026 11.7594 14.1094V13.0545C11.7596 12.9612 11.7967 12.8718 11.8627 12.8059C11.9287 12.7399 12.0182 12.7028 12.1115 12.7028H13.958C14.1515 12.7028 14.294 12.8599 14.273 13.0522L14.159 14.1116ZM14.4987 10.9474C14.4863 11.0427 14.4401 11.1303 14.3685 11.1944C14.297 11.2586 14.2048 11.2949 14.1087 11.2969H12.1115C12.0182 11.2967 11.9288 11.2596 11.8628 11.1937C11.7969 11.1277 11.7597 11.0384 11.7594 10.9451V9.89025C11.7596 9.79696 11.7967 9.70755 11.8627 9.64161C11.9287 9.57568 12.0182 9.5386 12.1115 9.5385H14.2977C14.4916 9.5385 14.6337 9.69563 14.6124 9.888L14.4987 10.9474ZM14.8385 7.7835C14.826 7.87878 14.7798 7.96643 14.7083 8.03056C14.6367 8.09468 14.5445 8.13103 14.4485 8.133H12.1115C12.0182 8.1328 11.9288 8.09569 11.8628 8.02978C11.7969 7.96387 11.7597 7.87451 11.7594 7.78125V6.375C11.7596 6.28171 11.7967 6.1923 11.8627 6.12636C11.9287 6.06043 12.0182 6.02335 12.1115 6.02325H14.6754C14.8692 6.02325 15.0114 6.18037 14.9907 6.37275L14.8385 7.7835ZM17.5505 14.4611V14.4585L17.5475 14.4611H15.8915C15.8806 14.4611 15.8712 14.4559 15.8604 14.4544C15.8585 14.4416 15.8585 14.4289 15.8562 14.4154L15.8397 14.4499C15.8443 14.4511 15.8489 14.4521 15.8536 14.4529C15.6807 14.433 15.557 14.2901 15.5769 14.1116L15.6901 13.0526C15.7027 12.9574 15.7489 12.8698 15.8205 12.8057C15.892 12.7416 15.9841 12.7052 16.0801 12.7031H17.9836C18.1775 12.7031 18.311 12.8591 18.2817 13.0507L18.1156 14.1135C18.0867 14.3048 17.9037 14.4611 17.7099 14.4611H17.5505Z" fill="black"/>
</svg>
