<svg width="90" height="90" viewBox="0 0 90 90" fill="none" xmlns="http://www.w3.org/2000/svg">
<path d="M41.25 7.50012L68.6175 16.0501C69.3808 16.2884 70.0479 16.7644 70.5215 17.4087C70.9951 18.053 71.2504 18.8318 71.25 19.6314V26.2501H78.75C79.7446 26.2501 80.6984 26.6452 81.4017 27.3485C82.1049 28.0517 82.5 29.0056 82.5 30.0001V37.5001H33.75V30.0001C33.75 29.0056 34.1451 28.0517 34.8484 27.3485C35.5516 26.6452 36.5054 26.2501 37.5 26.2501H63.75V22.3876L41.25 15.3526L18.75 22.3876V50.1526C18.7495 52.4485 19.2759 54.7138 20.2889 56.7741C21.3018 58.8344 22.7741 60.6348 24.5925 62.0364L25.3013 62.5464L41.25 73.4251L55.4325 63.7501H37.5C36.5054 63.7501 35.5516 63.355 34.8484 62.6518C34.1451 61.9485 33.75 60.9947 33.75 60.0001V45.0001H82.5V60.0001C82.5 60.9947 82.1049 61.9485 81.4017 62.6518C80.6984 63.355 79.7446 63.7501 78.75 63.7501L66.675 63.7539C65.2238 65.6664 63.4613 67.3539 61.425 68.7414L41.25 82.5001L21.075 68.7451C18.047 66.6806 15.5691 63.9076 13.8568 60.6673C12.1445 57.427 11.2496 53.8175 11.25 50.1526V19.6314C11.2505 18.8324 11.5061 18.0545 11.9796 17.4109C12.4531 16.7674 13.1198 16.292 13.8825 16.0539L41.25 7.50012Z" fill="#D02335" fill-opacity="0.8"/>
</svg>
