<svg width="101" height="70" viewBox="0 0 101 70" fill="none" xmlns="http://www.w3.org/2000/svg">
<g clip-path="url(#clip0_971_138)">
<path d="M98 48.125H95.5V33.3457C95.5 31.6094 94.7031 29.9414 93.2969 28.7109L77.6875 15.0527C76.2812 13.8223 74.375 13.125 72.3906 13.125H65.5V6.5625C65.5 2.93945 62.1406 0 58 0H18C13.8594 0 10.5 2.93945 10.5 6.5625V13.125H1.75C1.0625 13.125 0.5 13.6172 0.5 14.2188V16.4062C0.5 17.0078 1.0625 17.5 1.75 17.5H44.25C44.9375 17.5 45.5 17.9922 45.5 18.5938V20.7812C45.5 21.3828 44.9375 21.875 44.25 21.875H6.75C6.0625 21.875 5.5 22.3672 5.5 22.9688V25.1562C5.5 25.7578 6.0625 26.25 6.75 26.25H39.25C39.9375 26.25 40.5 26.7422 40.5 27.3438V29.5312C40.5 30.1328 39.9375 30.625 39.25 30.625H1.75C1.0625 30.625 0.5 31.1172 0.5 31.7188V33.9062C0.5 34.5078 1.0625 35 1.75 35H34.25C34.9375 35 35.5 35.4922 35.5 36.0938V38.2812C35.5 38.8828 34.9375 39.375 34.25 39.375H10.5V56.875C10.5 64.1211 17.2188 70 25.5 70C33.7812 70 40.5 64.1211 40.5 56.875H60.5C60.5 64.1211 67.2188 70 75.5 70C83.7812 70 90.5 64.1211 90.5 56.875H98C99.375 56.875 100.5 55.8906 100.5 54.6875V50.3125C100.5 49.1094 99.375 48.125 98 48.125ZM25.5 63.4375C21.3594 63.4375 18 60.498 18 56.875C18 53.252 21.3594 50.3125 25.5 50.3125C29.6406 50.3125 33 53.252 33 56.875C33 60.498 29.6406 63.4375 25.5 63.4375ZM75.5 63.4375C71.3594 63.4375 68 60.498 68 56.875C68 53.252 71.3594 50.3125 75.5 50.3125C79.6406 50.3125 83 53.252 83 56.875C83 60.498 79.6406 63.4375 75.5 63.4375ZM88 35H65.5V19.6875H72.3906L88 33.3457V35Z" fill="#F42C36" fill-opacity="0.8"/>
</g>
<defs>
<clipPath id="clip0_971_138">
<rect width="100" height="70" fill="white" transform="translate(0.5)"/>
</clipPath>
</defs>
</svg>
