<svg width="30" height="30" viewBox="0 0 30 30" fill="none" xmlns="http://www.w3.org/2000/svg">
<path d="M29.5315 0H28.125V0.448C26.167 0.886 25.8855 2.7035 25.775 3.398C25.7225 3.7265 25.616 4.369 25.484 5.156H0.993818C0.0248119 5.156 -0.0836887 6.0615 0.0428121 6.5625L2.91583 19.246C3.04183 19.747 3.57233 20.156 4.09234 20.156H25.5645C26.0815 20.156 26.503 20.5765 26.503 21.0935C26.503 21.6105 26.0815 22.031 25.5645 22.031H2.12733C1.87868 22.031 1.64023 22.1298 1.46441 22.3056C1.28859 22.4814 1.18982 22.7199 1.18982 22.9685C1.18982 23.2171 1.28859 23.4556 1.46441 23.6314C1.64023 23.8072 1.87868 23.906 2.12733 23.906H3.34233C2.75568 24.2299 2.26662 24.7052 1.92611 25.2823C1.5856 25.8595 1.4061 26.5174 1.40632 27.1875H2.34383C2.34383 28.74 3.60383 30 5.15634 30C6.70885 30 7.96886 28.74 7.96886 27.1875H8.90637C8.90648 26.5173 8.72689 25.8594 8.38629 25.2823C8.0457 24.7051 7.55657 24.2299 6.96986 23.906H20.2169C19.6302 24.2299 19.1411 24.7051 18.8005 25.2823C18.4599 25.8594 18.2803 26.5173 18.2804 27.1875H19.2179C19.2318 27.9244 19.5343 28.6264 20.0603 29.1426C20.5864 29.6588 21.2939 29.948 22.031 29.948C22.768 29.948 23.4755 29.6588 24.0016 29.1426C24.5276 28.6264 24.8301 27.9244 24.844 27.1875H25.7815C25.7815 26.5174 25.602 25.8596 25.2615 25.2824C24.921 24.7053 24.432 24.23 23.8455 23.906H25.5655C26.3113 23.9056 27.0264 23.6092 27.5538 23.0818C28.0811 22.5544 28.3776 21.8393 28.378 21.0935C28.3779 20.7241 28.3051 20.3583 28.1637 20.017C28.0222 19.6758 27.815 19.3657 27.5537 19.1046C27.2925 18.8434 26.9823 18.6362 26.641 18.4949C26.2997 18.3536 25.9339 18.2809 25.5645 18.281H25.216L26.415 10.826C26.749 8.857 27.469 4.6035 27.638 3.5455C27.723 3.011 27.8055 2.6355 28.125 2.425V2.812H29.5315C29.6555 2.81161 29.7744 2.76219 29.8622 2.67452C29.9499 2.58685 29.9995 2.46805 30 2.344V0.469C29.9997 0.344781 29.9503 0.225718 29.8625 0.137835C29.7747 0.0499516 29.6557 0.000396165 29.5315 0ZM5.15634 28.594C4.78344 28.5936 4.42592 28.4453 4.16223 28.1816C3.89855 27.9179 3.75023 27.5604 3.74984 27.1875H6.56235C6.56196 27.5603 6.41371 27.9178 6.15014 28.1814C5.88656 28.4451 5.52916 28.5935 5.15634 28.594ZM22.0315 28.594C21.6585 28.5937 21.3008 28.4455 21.037 28.1818C20.7732 27.9181 20.6248 27.5605 20.6244 27.1875H23.438C23.4373 27.5603 23.2889 27.9177 23.0253 28.1813C22.7616 28.4449 22.4043 28.5933 22.0315 28.594ZM20.8779 7.497C20.8944 7.36992 20.956 7.25299 21.0514 7.16747C21.1469 7.08195 21.2698 7.03353 21.3979 7.031H24.3665C24.6245 7.031 24.804 7.239 24.7635 7.4945L24.4695 9.38C24.4305 9.635 24.186 9.8435 23.9275 9.8435H21.0959C21.0363 9.84508 20.9771 9.83372 20.9222 9.81022C20.8674 9.78671 20.8183 9.75161 20.7784 9.70733C20.7384 9.66304 20.7085 9.61063 20.6908 9.5537C20.673 9.49676 20.6678 9.43665 20.6754 9.3775L20.8779 7.497ZM20.3734 12.1845C20.3902 12.0575 20.4519 11.9408 20.5473 11.8553C20.6426 11.7699 20.7654 11.7213 20.8934 11.7185H23.635C23.8935 11.7185 24.0725 11.9265 24.0335 12.182L23.812 13.599C23.7725 13.854 23.5285 14.0625 23.27 14.0625H20.6414C20.5819 14.0639 20.5227 14.0524 20.4679 14.0289C20.4132 14.0053 20.3642 13.9702 20.3243 13.926C20.2844 13.8817 20.2545 13.8294 20.2366 13.7725C20.2188 13.7157 20.2134 13.6556 20.2209 13.5965L20.3734 12.1845ZM2.43283 9.3885L1.95782 7.486C1.89582 7.235 2.05682 7.031 2.31533 7.031H5.84485C6.10385 7.031 6.33735 7.2405 6.36485 7.497L6.56685 9.378C6.57435 9.43708 6.56901 9.49708 6.5512 9.5539C6.5334 9.61073 6.50354 9.66304 6.46367 9.70727C6.4238 9.75151 6.37486 9.78662 6.32018 9.81022C6.26551 9.83381 6.20639 9.84534 6.14685 9.844H3.01633C2.75833 9.844 2.49533 9.6385 2.43283 9.3885ZM4.06834 14.0625C3.81034 14.0625 3.54733 13.8575 3.48533 13.6075L3.12733 12.174C3.06483 11.923 3.22483 11.719 3.48333 11.719H6.34785C6.60635 11.719 6.84035 11.9285 6.86786 12.185L7.01986 13.597C7.02744 13.6561 7.02216 13.7161 7.00438 13.773C6.98661 13.8298 6.95676 13.8822 6.91687 13.9265C6.87699 13.9707 6.82801 14.0058 6.77329 14.0294C6.71858 14.053 6.65941 14.0644 6.59985 14.063H4.06834V14.0625ZM7.05286 18.2815H5.12034C4.86084 18.2815 4.59934 18.0765 4.53684 17.8265L4.17884 16.393C4.11684 16.142 4.27684 15.938 4.53584 15.938H6.80085C7.05936 15.938 7.29336 16.1475 7.32186 16.404L7.47286 17.816C7.48045 17.8751 7.47517 17.9351 7.45739 17.9919C7.43962 18.0488 7.40976 18.1011 7.36986 18.1453C7.32997 18.1895 7.28098 18.2246 7.22626 18.2481C7.17155 18.2716 7.11239 18.283 7.05286 18.2815ZM12.7989 17.8125C12.7984 17.9369 12.7486 18.056 12.6606 18.1439C12.5725 18.2318 12.4533 18.2812 12.3289 18.2815H9.88337C9.75534 18.2789 9.63251 18.2304 9.53718 18.1449C9.44185 18.0594 9.38036 17.9425 9.36387 17.8155L9.21187 16.4035C9.20412 16.3444 9.20927 16.2844 9.22695 16.2275C9.24463 16.1706 9.27443 16.1182 9.31429 16.0739C9.35416 16.0296 9.40315 15.9945 9.45788 15.9709C9.51262 15.9474 9.57181 15.936 9.63137 15.9375H12.3289C12.4534 15.9375 12.5728 15.9869 12.6609 16.0748C12.749 16.1627 12.7986 16.282 12.7989 16.4065V17.8125ZM12.7989 13.594C12.7984 13.7184 12.7486 13.8375 12.6606 13.9254C12.5725 14.0133 12.4533 14.0627 12.3289 14.063H9.42987C9.17187 14.063 8.93887 13.8535 8.90987 13.597L8.75887 12.185C8.75121 12.1259 8.75641 12.0659 8.77413 12.0091C8.79184 11.9522 8.82164 11.8998 8.86149 11.8556C8.90134 11.8113 8.95029 11.7762 9.00498 11.7526C9.05968 11.729 9.11883 11.7176 9.17837 11.719H12.3289C12.4534 11.719 12.5728 11.7684 12.6609 11.8563C12.749 11.9442 12.7986 12.0635 12.7989 12.188V13.594ZM12.7989 9.375C12.7984 9.4994 12.7486 9.61853 12.6606 9.7064C12.5725 9.79427 12.4533 9.84374 12.3289 9.844H8.97787C8.84975 9.84147 8.72679 9.79305 8.63136 9.70753C8.53593 9.62201 8.47437 9.50508 8.45787 9.378L8.25586 7.497C8.24828 7.43791 8.25356 7.37788 8.27134 7.32101C8.28911 7.26415 8.31896 7.2118 8.35885 7.16755C8.39873 7.12329 8.44771 7.08818 8.50243 7.06461C8.55714 7.04104 8.61631 7.02958 8.67587 7.031H12.3294C12.4539 7.031 12.5733 7.08038 12.6614 7.16831C12.7495 7.25623 12.7991 7.37552 12.7994 7.5V9.375H12.7989ZM17.8784 17.8155C17.8618 17.9425 17.8002 18.0594 17.7048 18.1449C17.6094 18.2304 17.4865 18.2789 17.3584 18.2815H15.1484C15.0241 18.2812 14.9049 18.2318 14.8169 18.1439C14.7289 18.056 14.6793 17.9369 14.6789 17.8125V16.406C14.6792 16.2816 14.7287 16.1624 14.8167 16.0745C14.9047 15.9866 15.024 15.9371 15.1484 15.937H17.6104C17.8684 15.937 18.0584 16.1465 18.0304 16.403L17.8784 17.8155ZM18.3314 13.5965C18.3148 13.7235 18.2532 13.8404 18.1578 13.9259C18.0624 14.0114 17.9395 14.0599 17.8114 14.0625H15.1484C15.0241 14.0622 14.9049 14.0128 14.8169 13.9249C14.7289 13.837 14.6793 13.7179 14.6789 13.5935V12.187C14.6792 12.0626 14.7287 11.9434 14.8167 11.8555C14.9047 11.7676 15.024 11.7181 15.1484 11.718H18.0634C18.3219 11.718 18.5114 11.9275 18.4829 12.184L18.3314 13.5965ZM18.7844 9.378C18.7678 9.50503 18.7062 9.62191 18.6108 9.70741C18.5154 9.79291 18.3925 9.84137 18.2644 9.844H15.1484C15.0241 9.84374 14.9049 9.79426 14.8169 9.70637C14.7289 9.61849 14.6793 9.49935 14.6789 9.375V7.5C14.6792 7.37561 14.7287 7.25639 14.8167 7.16848C14.9047 7.08057 15.024 7.03113 15.1484 7.031H18.5669C18.8254 7.031 19.0149 7.2405 18.9874 7.497L18.7844 9.378ZM22.4005 18.2815V18.278L22.3965 18.2815H20.1884C20.1739 18.2815 20.1614 18.2745 20.1469 18.2725C20.1444 18.2555 20.1444 18.2385 20.1414 18.2205L20.1194 18.2665C20.1255 18.2681 20.1317 18.2695 20.1379 18.2705C19.9074 18.244 19.7424 18.0535 19.7689 17.8155L19.9199 16.4035C19.9367 16.2765 19.9984 16.1598 20.0938 16.0743C20.1891 15.9889 20.3119 15.9403 20.4399 15.9375H22.978C23.2365 15.9375 23.4145 16.1455 23.3755 16.401L23.154 17.818C23.1155 18.073 22.8715 18.2815 22.613 18.2815H22.4005Z" fill="white"/>
</svg>
