<svg width="90" height="90" viewBox="0 0 90 90" fill="none" xmlns="http://www.w3.org/2000/svg">
<path d="M24.375 56.25H65.625V78.75H24.375V56.25Z" fill="#BF360C"/>
<path d="M18.75 56.25C22.8921 56.25 26.25 52.8921 26.25 48.75C26.25 44.6079 22.8921 41.25 18.75 41.25C14.6079 41.25 11.25 44.6079 11.25 48.75C11.25 52.8921 14.6079 56.25 18.75 56.25Z" fill="#FFA726"/>
<path d="M71.25 56.2498C75.3921 56.2498 78.75 52.8919 78.75 48.7498C78.75 44.6076 75.3921 41.2498 71.25 41.2498C67.1079 41.2498 63.75 44.6076 63.75 48.7498C63.75 52.8919 67.1079 56.2498 71.25 56.2498Z" fill="#FFA726"/>
<path d="M17.375 35.6248C17.375 33.8404 18.1792 32.1248 19.6596 30.5189C21.1422 28.9106 23.2818 27.4378 25.8845 26.1596C31.089 23.6036 38.0552 21.8698 45.0366 21.3579C52.023 20.8455 58.9631 21.5612 64.1337 23.8478C69.2821 26.1245 72.625 29.9243 72.625 35.6248V54.3748C72.625 69.6612 60.2864 81.9998 45 81.9998C29.7136 81.9998 17.375 69.6612 17.375 54.3748V35.6248Z" fill="white" stroke="black"/>
<path d="M56.25 52.5C58.3211 52.5 60 50.8211 60 48.75C60 46.6789 58.3211 45 56.25 45C54.179 45 52.5001 46.6789 52.5001 48.75C52.5001 50.8211 54.179 52.5 56.25 52.5Z" fill="#784719"/>
<path d="M33.75 52.5C35.8211 52.5 37.5 50.8211 37.5 48.75C37.5 46.6789 35.8211 45 33.75 45C31.6789 45 30 46.6789 30 48.75C30 50.8211 31.6789 52.5 33.75 52.5Z" fill="#784719"/>
<path d="M45 3.75C29.0625 3.75 5.625 14.625 5.625 66.75L24.375 78.75V45L55.875 26.625L65.625 39.375V78.75L84.375 63.375C84.375 52.875 82.6875 9 55.5 9L52.875 3.75H45Z" fill="#D02335" fill-opacity="0.8"/>
<path d="M84.375 45C83.25 45 82.5 45.75 82.5 46.875V33.75C82.5 17.25 69 3.75 52.5 3.75H35.625C34.5 3.75 33.75 4.5 33.75 5.625C33.75 6.75 34.5 7.5 35.625 7.5H52.5C66.9375 7.5 78.75 19.3125 78.75 33.75V52.5C78.75 53.625 79.5 54.375 80.625 54.375C81.75 54.375 82.5 53.625 82.5 52.5V56.25C82.5 63.5625 76.6875 69.375 69.375 69.375H45C43.875 69.375 43.125 70.125 43.125 71.25C43.125 72.375 43.875 73.125 45 73.125H69.375C78.75 73.125 86.25 65.625 86.25 56.25V46.875C86.25 45.75 85.5 45 84.375 45Z" fill="black"/>
<path d="M84.375 41.2498H82.5C80.4375 41.2498 78.75 42.9373 78.75 44.9998V52.4998C78.75 54.5623 80.4375 56.2498 82.5 56.2498H84.375C86.4375 56.2498 88.125 54.5623 88.125 52.4998V44.9998C88.125 42.9373 86.4375 41.2498 84.375 41.2498Z" fill="#37474F"/>
<path d="M45.0001 75C47.0711 75 48.7501 73.321 48.7501 71.25C48.7501 69.1789 47.0711 67.5 45.0001 67.5C42.929 67.5 41.2501 69.1789 41.2501 71.25C41.2501 73.321 42.929 75 45.0001 75Z" fill="#37474F"/>
</svg>
