<svg width="100" height="90" viewBox="0 0 100 90" fill="none" xmlns="http://www.w3.org/2000/svg">
<path d="M95.8333 45L85.6667 34.5375L87.0833 20.7L72.0417 17.625L64.1667 5.625L50 11.1L35.8333 5.625L27.9583 17.5875L12.9167 20.625L14.3333 34.5L4.16666 45L14.3333 55.4625L12.9167 69.3375L27.9583 72.4125L35.8333 84.375L50 78.8625L64.1667 84.3375L72.0417 72.375L87.0833 69.3L85.6667 55.4625L95.8333 45ZM39.0833 60.0375L29.1667 51.0375C28.7804 50.6906 28.4739 50.2785 28.2649 49.8248C28.0558 49.3712 27.9481 48.8849 27.9481 48.3937C27.9481 47.9026 28.0558 47.4163 28.2649 46.9627C28.4739 46.509 28.7804 46.0969 29.1667 45.75L29.4583 45.4875C31.0833 44.025 33.75 44.025 35.375 45.4875L42.0833 51.5625L63.5417 32.2125C65.1667 30.75 67.8333 30.75 69.4583 32.2125L69.75 32.475C71.375 33.9375 71.375 36.3 69.75 37.7625L45.0833 60.0375C43.375 61.5 40.75 61.5 39.0833 60.0375Z" fill="#D02335" fill-opacity="0.8"/>
</svg>
